<svg width="200" height="100" viewBox="0 0 200 100" fill="none" xmlns="http://www.w3.org/2000/svg">
<path d="M93.1528 53.0645V62.0172H92.5201V53.6185H91.938L89.3535 60.2982H88.5057L85.9243 53.6185H85.3391V62.0172H84.7064V53.0645H86.3641L88.9233 59.7062L91.492 53.0645H93.1528ZM95.4336 53.0645L98.306 57.1894L101.166 53.0645H101.862L98.6097 57.7561V62.0172H97.977V57.7561L94.7092 53.0645H95.4336ZM108.268 54.0838C107.86 53.8876 107.417 53.7134 106.926 53.5551C106.61 53.457 106.202 53.4064 105.708 53.3937C104.987 53.381 104.392 53.5298 103.95 53.8591C103.532 54.1535 103.329 54.6568 103.329 55.3818C103.329 55.825 103.481 56.1796 103.798 56.4392C104.13 56.7209 104.633 56.9425 105.307 57.1008L106.041 57.2844C106.699 57.4554 107.205 57.6516 107.572 57.8859C108.242 58.3259 108.571 58.88 108.571 59.5543C108.571 60.5261 108.28 61.2005 107.686 61.5803C107.04 61.9856 106.382 62.1818 105.708 62.1818C105.035 62.1818 104.38 62.0837 103.823 61.8969C103.469 61.764 103.105 61.5803 102.722 61.3334V60.7446C103.295 61.0738 103.696 61.2954 103.937 61.3809C104.459 61.5898 104.927 61.688 105.37 61.688C106.116 61.688 106.749 61.5265 107.243 61.2099C107.711 60.9029 107.951 60.3615 107.951 59.6017C107.951 59.1585 107.812 58.804 107.521 58.5444C107.103 58.1772 106.559 57.9176 105.898 57.7593L105.152 57.5883C104.557 57.4522 104.063 57.2559 103.646 56.9995C103.013 56.6196 102.697 56.0909 102.697 55.4293C102.697 54.6062 102.95 53.9667 103.469 53.5267C103.95 53.1119 104.674 52.8998 105.648 52.8998C106.218 52.8998 106.661 52.9505 106.964 53.0486C107.749 53.2924 108.179 53.4538 108.268 53.514V54.0838ZM109.536 53.0645H116.714V53.5551H113.437V62.0141H112.817V53.5551H109.536V53.0645ZM118.286 53.0645H123.503V53.5678H118.906V56.9932H123.313V57.4839H118.906V61.5234H123.604V62.0141H118.286V53.0613V53.0645ZM131.784 53.0645V53.5551H128.504V62.0141H127.884V53.5551H124.604V53.0645H131.784ZM138.162 54.0838C137.757 53.8876 137.314 53.7134 136.821 53.5551C136.504 53.457 136.099 53.4064 135.606 53.3937C134.885 53.381 134.29 53.5298 133.847 53.8591C133.429 54.1535 133.227 54.6568 133.227 55.3818C133.227 55.825 133.379 56.1796 133.695 56.4392C134.024 56.7209 134.53 56.9425 135.204 57.1008L135.938 57.2844C136.596 57.4554 137.102 57.6516 137.469 57.8859C138.14 58.3259 138.469 58.88 138.469 59.5543C138.469 60.5261 138.178 61.2005 137.586 61.5803C136.941 61.9856 136.283 62.1818 135.609 62.1818C134.935 62.1818 134.28 62.0837 133.724 61.8969C133.369 61.764 133.002 61.5803 132.623 61.3334V60.7446C133.192 61.0738 133.597 61.2954 133.838 61.3809C134.36 61.5898 134.828 61.688 135.271 61.688C136.014 61.688 136.65 61.5265 137.14 61.2099C137.612 60.9029 137.852 60.3615 137.852 59.6017C137.852 59.1585 137.713 58.804 137.422 58.5444C137.007 58.1772 136.46 57.9176 135.802 57.7593L135.055 57.5883C134.461 57.4522 133.967 57.2559 133.55 56.9995C132.917 56.6196 132.601 56.0909 132.601 55.4293C132.601 54.6062 132.854 53.9667 133.373 53.5267C133.853 53.1119 134.578 52.8998 135.549 52.8998C136.122 52.8998 136.564 52.9505 136.865 53.0486C137.649 53.2924 138.083 53.4538 138.168 53.514V54.0775L138.162 54.0838ZM146.393 62.0141L141.733 57.4839H141.215V62.0141H140.607V53.0613H141.215V56.99H141.771L146.077 53.0613H146.899L142.319 57.2496L147.203 62.0141H146.393ZM147.409 53.0613H148.13L151.002 57.1863L153.865 53.0613H154.561L151.309 57.7529V62.0141H150.676V57.7529L147.409 53.0613ZM160.338 53.552H158.123V61.5202H160.338V62.0109H155.377V61.5202H157.49V53.552H155.377V53.0613H160.338V53.552ZM93.1559 74.8227H92.4979L91.4097 72.0115H86.459L85.3707 74.8227H84.7096L88.2305 65.87H89.635L93.1559 74.8227ZM91.2199 71.5208L89.2206 66.4271H88.6481L86.6456 71.5208H91.2199ZM100.603 74.8227L97.8188 70.7705H95.4652V74.8227H94.8452V65.87H97.5278C98.6065 65.87 99.3657 66.0789 99.8339 66.5063C100.302 66.9368 100.53 67.5383 100.53 68.3108C100.53 68.9376 100.365 69.4757 100.049 69.919C99.72 70.3748 99.2139 70.6439 98.5432 70.7167L101.365 74.8164H100.606L100.603 74.8227ZM97.6923 66.3638L95.4621 66.3891V70.283H97.6923C98.4641 70.283 99.0209 70.1089 99.3626 69.7765C99.7042 69.4441 99.8687 68.9661 99.8687 68.3171C99.8687 67.6681 99.7042 67.1869 99.3626 66.8577C99.0209 66.5253 98.4641 66.367 97.6923 66.367V66.3638ZM107.983 66.8957C107.578 66.6994 107.135 66.5284 106.638 66.367C106.322 66.2688 105.92 66.2182 105.427 66.2055C104.706 66.1929 104.108 66.3416 103.665 66.6709C103.247 66.9653 103.045 67.4687 103.045 68.1936C103.045 68.6368 103.197 68.9914 103.513 69.251C103.845 69.5359 104.348 69.7575 105.022 69.9158L105.756 70.0994C106.414 70.2704 106.92 70.4666 107.287 70.7009C107.958 71.1409 108.287 71.6949 108.287 72.3724C108.287 73.3411 107.996 74.0186 107.401 74.3985C106.755 74.8037 106.097 75 105.427 75C104.756 75 104.095 74.9019 103.541 74.7151C103.187 74.5821 102.82 74.3985 102.441 74.1516V73.5627C103.01 73.8952 103.415 74.1168 103.655 74.1991C104.174 74.408 104.642 74.5061 105.085 74.5061C105.832 74.5061 106.464 74.3447 106.958 74.0281C107.426 73.721 107.667 73.1797 107.667 72.4199C107.667 71.9799 107.527 71.6221 107.236 71.3625C106.819 70.9953 106.275 70.7357 105.613 70.5774L104.87 70.4065C104.275 70.2704 103.782 70.0741 103.361 69.8177C102.728 69.4378 102.412 68.9091 102.412 68.2474C102.412 67.4243 102.662 66.788 103.184 66.3448C103.665 65.9301 104.386 65.718 105.36 65.718C105.93 65.718 106.373 65.7687 106.676 65.8668C107.461 66.1105 107.891 66.272 107.98 66.3322V66.8957H107.983ZM110.333 65.8763H115.55V66.3796H110.953V69.805H115.357V70.2957H110.953V74.3352H115.651V74.8259H110.333V65.8731V65.8763ZM124.3 65.8763H124.92V74.829H123.477L118.897 66.4303H118.466V74.829H117.837V65.8763H119.267L123.863 74.275H124.306V65.8763H124.3ZM134.391 74.829L133.303 72.0179H128.355L127.267 74.829H126.609L130.13 65.8763H131.535L135.052 74.829H134.391ZM133.113 71.5272L131.111 66.4335H130.538L128.539 71.5272H133.113ZM136.64 65.8794H137.26V74.3384H141.756V74.829H136.64V65.8763V65.8794ZM93.6178 27.444V36.3967H92.4062V28.533L90.0273 34.6714H88.3001L85.9212 28.533V36.3936H84.7096V27.444H86.5697L88.9486 33.5824H89.3725L91.7514 27.444H93.6178ZM101.507 27.444H103.418V36.3967H102.197V28.495L97.8852 36.3936H95.9872V27.444H97.1988V35.3394L101.507 27.444ZM112.775 35.6813C111.902 36.2606 110.925 36.5455 109.837 36.5455C108.445 36.5455 107.341 36.1308 106.528 35.3045C105.731 34.4783 105.329 33.3449 105.329 31.9014C105.329 30.4578 105.731 29.3308 106.528 28.5013C107.338 27.6751 108.445 27.2635 109.837 27.2635C110.95 27.2635 111.928 27.5453 112.775 28.1151L112.244 28.973C111.545 28.5013 110.767 28.2607 109.913 28.2607C107.79 28.2607 106.651 29.5302 106.651 31.9077C106.651 34.2852 107.79 35.5578 109.913 35.5578C110.748 35.5578 111.526 35.3172 112.244 34.8328L112.775 35.6876V35.6813ZM113.826 27.444H121.386V28.4633H118.236V36.3936H116.98V28.4633H113.829V27.444H113.826ZM122.712 27.444H128.545V28.4633H123.958V31.1131H128.352V32.1325H123.958V35.3774H128.656V36.3967H122.712V27.444ZM137.608 36.3967H130.573V27.444H131.822V35.3742H136.359V27.444H137.608V35.3742H138.659V38.3215H137.608V36.3936V36.3967ZM140.373 27.444H141.623V31.1226H143.688C145.757 31.1226 146.921 31.9868 146.921 33.7597C146.921 35.5325 145.757 36.3936 143.688 36.3936H140.373V27.444ZM145.112 32.5218C144.792 32.2528 144.296 32.123 143.622 32.123H141.623V35.4027H143.622C144.296 35.4027 144.792 35.2634 145.112 34.9943C145.441 34.7252 145.602 34.3168 145.602 33.766C145.602 33.2151 145.441 32.7941 145.112 32.525V32.5218ZM149.974 36.3999H148.737V27.444H149.987V31.1542H150.521L154.577 27.444H156.184L151.6 31.6418L156.51 36.3967H154.868L150.509 32.1578H149.974V36.3999ZM163.191 27.4471H165.102V36.3999H163.887V28.495L159.572 36.3936H157.674V27.444H158.886V35.3394L163.194 27.444L163.191 27.4471ZM173.089 27.4471H175V36.3999H173.782V28.495L169.47 36.3936H167.572V27.444H168.784V35.3394L173.092 27.444L173.089 27.4471ZM170.043 25C170.144 25.4242 170.549 25.6648 171.242 25.6648C171.935 25.6648 172.305 25.4369 172.447 25H173.181C173.086 25.9529 172.425 26.4499 171.239 26.4499C170.052 26.4499 169.385 25.9529 169.303 25H170.043ZM91.4856 46.9197H86.8955L86.0287 49.2022H84.7096L88.2463 40.2526H90.1317L93.6621 49.2022H92.3429L91.4856 46.9197ZM91.0839 45.8402L89.3978 41.3448H88.9834L87.2941 45.8402H91.0839ZM95.0793 40.2526H97.8979C99.9668 40.2526 101.036 41.1739 101.036 42.9245C101.036 44.6752 99.9668 45.6059 97.8979 45.6059H96.3288V49.2022H95.0793V40.2526ZM96.3288 41.2467V44.6087H97.8979C99.0589 44.6087 99.72 44.0041 99.72 42.9245C99.72 41.845 99.0589 41.2467 97.8979 41.2467H96.3288ZM109.713 48.4868C108.84 49.0629 107.863 49.351 106.778 49.351C105.386 49.351 104.279 48.9363 103.469 48.11C102.672 47.2838 102.27 46.1473 102.27 44.7037C102.27 43.2601 102.672 42.1331 103.469 41.3037C104.279 40.4774 105.386 40.0627 106.778 40.0627C107.888 40.0627 108.865 40.3444 109.713 40.9143L109.182 41.7722C108.483 41.2973 107.705 41.0567 106.854 41.0567C104.728 41.0567 103.589 42.3294 103.589 44.7037C103.589 47.078 104.728 48.3538 106.854 48.3538C107.689 48.3538 108.467 48.1164 109.182 47.6288L109.713 48.4868ZM111.523 40.2495H117.356V41.2657H112.772V43.9154H117.163V44.938H112.772V48.1797H117.47V49.1991H111.526V40.2495H111.523ZM119.495 40.2495H120.741V43.9154H125.28V40.2495H126.527V49.1991H125.28V44.938H120.741V49.1991H119.495V40.2495ZM134.622 46.9134H130.032L129.165 49.1959H127.849L131.383 40.2463H133.268L136.799 49.1959H135.479L134.622 46.9134ZM134.22 45.8339L132.534 41.3385H132.12L130.431 45.8339H134.22ZM139.902 40.2463V45.9605C139.902 47.0907 138.82 48.1069 137.649 48.1069L138.077 49.1959C139.785 49.0534 141.129 47.6542 141.129 45.9605V41.2625H144.612V49.1927H145.862V40.2431H139.899L139.902 40.2463Z" fill="#E8FF03"/>
<path d="M25 59.2029V74.9968H41.2821V69.7322H30.4284V59.2029H25ZM68.4243 59.2029V69.7322H57.5674V74.9968H73.8496V59.2029H68.4211H68.4243ZM25 27.6149V43.4089H30.4284V32.8764H41.2821V27.6149H25ZM57.5706 27.6149V32.8764H68.4275V43.4089H73.8559V27.6149H57.5706Z" fill="#E8FF03"/>
</svg>
